<svg xmlns="http://www.w3.org/2000/svg" viewBox="0 0 24 24" fill="none">
  <path d="M 10 2 L 9 3 L 7 3 L 6 4 L 5 4 L 5 5 L 4 6 L 3 6 L 2 9 L 3 9 L 5 11 L 8 8 L 9 8 L 10 9 L 10 10 L 6 13 L 6 15 L 4 17 L 4 18 L 5 19 L 5 20 L 6 20 L 7 21 L 9 21 L 10 22 L 14 22 L 15 21 L 17 21 L 17 17 L 16 17 L 15 16 L 15 13 L 12 10 L 12 9 L 13 8 L 14 8 L 16 10 L 17 10 L 18 9 L 20 9 L 21 8 L 20 7 L 20 6 L 17 3 L 15 3 L 14 2 Z M 11 17 L 13 15 L 14 15 L 15 16 L 15 17 L 14 18 L 12 18 Z M 6 16 L 7 15 L 9 17 L 8 18 L 7 18 L 6 17 Z" fill="currentColor" fill-rule="evenodd"/>
</svg>
